<svg id="master" xmlns="http://www.w3.org/2000/svg" viewBox="0 0 1129.02 378.92"><defs><style>.cls-1{fill:#f5af18;}</style></defs><g id="Fonts"><path class="cls-1" d="M149.87,119.25,130.29,209c-7.87,36.52-23.87,59.44-57.29,59.44-28.4,0-37-16.47-37-32.7,0-16.47,8.59-33,32-33,6.45,0,20.53,1.2,20.53,16a38.85,38.85,0,0,1-1.43,9.55c-4.54-6-10.5-8.84-16.47-8.84-9.55,0-18.38,7.88-18.38,20.06,0,11.69,8.11,19.57,19.33,19.57,10.74,0,23.4-7.4,28.89-32l12.17-55.62C101.89,185.85,87.57,193,71.33,193c-28.16,0-47.26-22-47.26-59.2C24.07,85.11,57,40,109.77,40c22.43,0,44.87,8.11,44.87,32.94,0,11.22-4.53,21-16.71,21-3.82,0-11.93-1-16.47-6.2,1.67,0,13.85-4.06,13.85-20.53,0-11.7-6.21-18.62-19.1-18.62-35.57,0-63.5,44.16-63.5,85.93,0,24.83,9.79,41.78,28.17,41.78,20.05,0,35.57-19.81,45.83-57.29Z"/><path class="cls-1" d="M197.37,99.67l-4.29,19.58c9.07-10,18.85-20.77,32-20.77,9.55,0,13.37,4.77,13.37,11.22,0,12.17-9.55,15.51-13.85,15.51-5.49,0-5-6-11.93-6s-15.28,6-22,11.69L171.83,219H148l25.3-119.36Z"/><path class="cls-1" d="M341.79,99.67l-17.42,81.16a47.49,47.49,0,0,0-1.2,10.75c0,5.49,1.43,10.74,7.4,10.74,7.64,0,15.76-9.79,22.68-26h8.83c-15.51,39.86-31,44.16-41.53,44.16s-17.91-6.92-19.1-23.39c-7.4,12.89-21,23.39-36.28,23.39-15.52,0-30.56-10.5-30.56-38.43,0-32.23,21-83.55,61.11-83.55,7.64,0,17.19,2.86,19.58,12.65l2.38-11.46ZM301.45,176.3l11.46-54.19c-1-5.25-4.78-10.5-11.94-10.5-26.26,0-40.82,43.2-40.82,67.08,0,18.14,6,23.63,15,23.63C285.22,202.32,298.35,190.86,301.45,176.3Z"/><path class="cls-1" d="M424.62,120.68c0-5.49-3.58-9.55-10.74-9.55-22.44,0-36.76,40.82-36.76,67.56,0,16.47,5.49,23.63,21,23.63,16.71,0,31.51-8.36,42-26h8.12c-12.66,23.39-36.29,44.16-61.83,44.16-18.38,0-35.33-10.74-35.33-38.43,0-26.74,15.75-83.55,61.83-83.55,16.23,0,25.06,7.16,25.06,22.68,0,11-4.54,20.05-12.65,20.05-3.82,0-6.21-1.91-7.88-5C421.52,133.57,424.62,125.93,424.62,120.68Z"/><path class="cls-1" d="M464.25,171.29c-.24,2.62-.24,5-.24,7.4,0,16.23,5.49,23.63,20.77,23.63a41.35,41.35,0,0,0,28.41-11.46c-4.06,23.39-20.77,29.6-39.87,29.6-18.38,0-35.33-10.74-35.33-38.19,0-27,16.47-83.79,60.4-83.79,13.12,0,25.54,5,25.54,24.59C523.93,149.8,501.25,167.47,464.25,171.29Zm1.19-9.31c26.5-4.06,43.93-19.82,43.93-41.3,0-5.49-1.2-10.5-8.84-10.5C482.87,110.18,469.74,137.39,465.44,162Z"/><path class="cls-1" d="M761.74,93.56v19.85h-24V223H714.87V113.41h-24V93.56Z"/><path class="cls-1" d="M796,174.26V223H773.27V93.56h38.17q15.31,0,23.72,7.47t8.41,21.26V144.4q0,21.93-15.87,27.6l20.41,51h-25l-17.95-48.77ZM796,113v42.9h13.23c4.15,0,7.15-.91,9-2.74s2.74-4.82,2.74-9V124q0-11-11.71-11Z"/><path class="cls-1" d="M911.8,93.56h22.68v99q0,14.75-9.26,23.53t-27.31,8.79q-18.06,0-27.22-8.79t-9.16-23.53v-99h22.68v97.9q0,12.85,13.79,12.86t13.8-12.86Z"/><path class="cls-1" d="M1015.94,93.56v19.85h-24V223H969.07V113.41h-24V93.56Z"/><path class="cls-1" d="M1081.9,93.56H1105V223H1081.9V169.54h-31.57V223h-22.87V93.56h22.87v55.76h31.57Z"/><path class="cls-1" d="M618.71,180.37a62.7,62.7,0,0,0,5-19,56.62,56.62,0,0,0,.28-7.24,10,10,0,0,0-7.42,3.22c-5-7.41,2.24-16.74,15.59-16.74,12.87,0,22.45,5.31,33.15,0,4.58,6.92-2.72,18.18-14,18.18-6.44,0-12-2.25-18-3.54a66.28,66.28,0,0,1-.06,11.27,69.47,69.47,0,0,1-5.43,21.07c10.63,7.56,21,12.87,27.47,14.16-1.5,14.32-10.26,21.08-16,19.15-7.29-2.58-15.74-7.89-24.31-15.13-10.36,9.82-23.58,14.65-35.49,14.65-23.17,0-32.66-15.29-31-31.38,1.49-14.16,11.91-29.12,29.49-34.11-3.53-9.33-5.12-18.66-4.17-27.67,1.52-14.48,14.93-28.8,31.66-28.8s24.6,9.33,23.23,22.36c-1,9.66-5.54,14.48-14.07,14.48-2.57,0-7.36-1.93-8.65-6.43a16.11,16.11,0,0,0,8.84-12.23c.61-5.79-3.7-9.17-9.81-9.17-8.53,0-15,6-16.4,19.79C586.72,146.42,601.72,165.89,618.71,180.37Zm-12.56,16.9a135.37,135.37,0,0,1-24.43-34,32.62,32.62,0,0,0-14,23.17C566.62,196.78,571.45,206,584,206A34,34,0,0,0,606.15,197.27Z"/><path class="cls-1" d="M147.43,270.41q0-17.85,22.63-17.85a54.64,54.64,0,0,1,14.58,2v8.3a53.19,53.19,0,0,0-14.83-2.14q-7.42,0-10.44,2.58t-3,7.6v49.16c0,3.27,1,5.76,3.08,7.48s5.65,2.57,10.81,2.57a52.2,52.2,0,0,0,14.64-2v8.17a48.52,48.52,0,0,1-14.83,2q-22.63,0-22.63-17.86Z"/><path class="cls-1" d="M234,253.19h9.06v84.48H234V300.2h-26.9v37.47h-8.92V253.19h8.92v39.1H234Z"/><path class="cls-1" d="M281.81,303.72H269.37v33.95h-8.93V253.19h20.49q10.06,0,15.22,5.09t5.15,13.89v12.45q0,13.58-10.81,17.6l13.45,35.45h-9.81Zm-12.44-7.79h11.19q11.81,0,11.81-11.44V272.55q0-11.44-11.81-11.44H269.37Z"/><path class="cls-1" d="M317.89,253.19h8.93v84.48h-8.93Z"/><path class="cls-1" d="M339,270.29q0-8.31,5.53-13t15.53-4.71A57.71,57.71,0,0,1,377,254.7v8.55a46.6,46.6,0,0,0-16-2.39q-12.94,0-12.95,9.8v6a12.22,12.22,0,0,0,1.7,6.91,16.49,16.49,0,0,0,5.72,4.78l14.58,8.17q10.19,5.54,10.18,16.72v6.79q0,8.67-5.9,13.45t-17,4.78q-11.13,0-17.66-2.52v-8.55A47.81,47.81,0,0,0,356.48,330q14.83,0,14.84-10.44v-5.28a12.12,12.12,0,0,0-1.51-6.53,14.53,14.53,0,0,0-5.41-4.53L350,295.3Q339,289.39,339,277.7Z"/><path class="cls-1" d="M427.13,253.19v7.92H410.79v76.56h-9.05V261.11H385.4v-7.92Z"/><path class="cls-1" d="M436.94,253.19h8.92v84.48h-8.92Z"/><path class="cls-1" d="M498.53,337.67,493.38,314H470.75l-5.15,23.64h-8.93l19.11-84.48h12.57l19.11,84.48Zm-26.14-31.43h19.23l-9.68-44.38Z"/><path class="cls-1" d="M555.73,323.34l-.88-27.79V253.19h8.93v84.48H553.47l-17.35-43.75q-1-2.64-9.93-26.27l.75,27.65v42.37h-8.67V253.19h10.31Q548.56,304,555.73,323.34Z"/><path class="cls-1" d="M603.63,270.41q0-17.85,22.62-17.85a54.66,54.66,0,0,1,14.59,2v8.3A53.2,53.2,0,0,0,626,260.73q-7.41,0-10.43,2.58t-3,7.6v49.16q0,4.9,3.08,7.48t10.81,2.57a52.22,52.22,0,0,0,14.65-2v8.17a48.59,48.59,0,0,1-14.84,2q-22.62,0-22.62-17.86Z"/><path class="cls-1" d="M653.16,271.92q0-8.93,5.4-14.46t15.9-5.53q10.5,0,15.91,5.53t5.4,14.46v47.14q0,8.93-5.4,14.4t-16,5.46q-10.56,0-15.9-5.46t-5.34-14.4Zm33.69.13q0-11.94-12.39-11.95t-12.38,11.95v46.76q0,12.07,12.38,12.07t12.39-12.07Z"/><path class="cls-1" d="M744.8,253.19h8.92v65.87q0,8.93-5.34,14.4t-15.9,5.46q-10.56,0-15.9-5.46t-5.35-14.4V253.19h8.93v65.62q0,12.07,12.32,12.07t12.32-12.07Z"/><path class="cls-1" d="M807.9,323.34,807,295.55V253.19H816v84.48H805.64l-17.35-43.75q-1-2.64-9.93-26.27l.76,27.65v42.37h-8.68V253.19h10.31Q800.75,304,807.9,323.34Z"/><path class="cls-1" d="M828.14,270.29q0-8.31,5.53-13t15.53-4.71a57.71,57.71,0,0,1,16.91,2.14v8.55a46.6,46.6,0,0,0-16-2.39q-12.95,0-12.95,9.8v6a12.22,12.22,0,0,0,1.7,6.91,16.49,16.49,0,0,0,5.72,4.78l14.58,8.17q10.18,5.54,10.19,16.72v6.79q0,8.67-5.91,13.45t-17,4.78q-11.11,0-17.66-2.52v-8.55A47.87,47.87,0,0,0,845.62,330q14.82,0,14.83-10.44v-5.28a12.12,12.12,0,0,0-1.51-6.53,14.49,14.49,0,0,0-5.4-4.53l-14.46-7.92q-10.94-5.91-10.94-17.6Z"/><path class="cls-1" d="M882.07,253.19h36.58v7.92H891v30h24.13v7.92H891v30.68h27.65v7.92H882.07Z"/><path class="cls-1" d="M932,253.19h8.92v76.68h25.65v7.8H932Z"/><path class="cls-1" d="M975.85,253.19h8.92v84.48h-8.92Z"/><path class="cls-1" d="M1039.59,323.34l-.88-27.79V253.19h8.92v84.48h-10.31L1020,293.92q-1-2.64-9.93-26.27l.76,27.65v42.37h-8.68V253.19h10.31Q1032.43,304,1039.59,323.34Z"/><path class="cls-1" d="M1063.72,271.17q0-8.69,5.72-13.64t17.66-5a52.7,52.7,0,0,1,15.21,2.14v8.55a49.05,49.05,0,0,0-15.21-2.39q-7.78,0-11.12,2.7c-2.22,1.8-3.33,4.51-3.33,8.11v48.4q0,10.19,12.07,10.18c5.27,0,9-.88,11.31-2.64V296.18H1105v37.09a39.09,39.09,0,0,1-19.49,5q-21.75,0-21.75-17.86Z"/></g></svg>